# xmcd
#
# Track frame offsets: 
#        150
#        14702
#        29934
#        43517
#        59310
#        72393
#        88897
#        104025
#        120507
#        138112
#        149212
#        167802
#
# Disc length: 2469 seconds
#
# Revision: 0
# Processed by: cddbd v1.5.2PL0 Copyright (c) Steve Scherf et al.
# Submitted via: ExactAudioCopy v1.3
#
DISCID=be09a30c
DTITLE=Hal Ketchum - Lucky Man
DYEAR=2001
DGENRE=Country
TTITLE0=(She's Something) You're Everything
TTITLE1=You Can't Go Back
TTITLE2=That's How Much You Mean To Me
TTITLE3=Loving You Makes Me A Better Man
TTITLE4=Don't Let Go
TTITLE5=Dreams Of Martina
TTITLE6=She's Still In Dallas
TTITLE7=Two Of The Lucky Ones (And Dolly Parton)
TTITLE8=Richest Man In Texas
TTITLE9=Livin' Life Lovin' You
TTITLE10=Keep Mom and Dad In Love (And Lisa Brokop)
TTITLE11=She Is
EXTD=
EXTT0=
EXTT1=
EXTT2=
EXTT3=
EXTT4=
EXTT5=
EXTT6=
EXTT7=
EXTT8=
EXTT9=
EXTT10=
EXTT11=
PLAYORDER=
